<svg width="85" height="25" viewBox="0 0 85 25" fill="none" xmlns="http://www.w3.org/2000/svg">
<rect x="0.833313" y="2.38094" width="20.2381" height="20.2381" rx="5.95238" fill="#0ACF83"/>
<mask id="mask0_0_124" style="mask-type:alpha" maskUnits="userSpaceOnUse" x="0" y="2" width="22" height="21">
<rect x="0.833313" y="2.38095" width="20.2381" height="20.2381" rx="5.95238" fill="#0ACF83"/>
</mask>
<g mask="url(#mask0_0_124)">
<path d="M13.9022 12.0181C14.2974 13.4929 13.4206 15.0091 11.9438 15.4048C10.467 15.8005 8.9495 14.9258 8.55434 13.4511C8.15919 11.9764 9.03603 10.4601 10.5128 10.0644C11.9896 9.66869 13.5071 10.5434 13.9022 12.0181Z" fill="white"/>
<path fill-rule="evenodd" clip-rule="evenodd" d="M0.602709 3.89787C0.227587 4.27254 0.227375 4.87978 0.602236 5.25419L5.30889 9.95516C4.67252 11.3039 4.49216 12.8757 4.90812 14.4281C5.84211 17.9138 9.42893 19.9814 12.9195 19.0461C16.4101 18.1108 18.4826 14.5268 17.5486 11.0411C16.6146 7.55541 13.0278 5.4879 9.53722 6.42319C9.01169 6.56401 8.5183 6.76487 8.06247 7.01638L3.45019 2.40968C3.07533 2.03527 2.46735 2.03548 2.09222 2.41015L0.602709 3.89787ZM12.204 16.3759C14.2178 15.8363 15.4135 13.7686 14.8747 11.7577C14.3358 9.74668 12.2665 8.55388 10.2527 9.09347C8.23893 9.63307 7.04324 11.7007 7.58208 13.7117C8.12092 15.7227 10.1902 16.9155 12.204 16.3759Z" fill="white"/>
</g>
<path d="M28.6523 19L33.5285 5.66667H36.2714L41.1476 19H38.5571L37.4904 15.9143H32.2904L31.2047 19H28.6523ZM32.9571 14.0095H36.8238L34.8809 8.46667L32.9571 14.0095ZM46.4029 19.2286C45.222 19.2286 44.3077 18.8603 43.6601 18.1238C43.0251 17.3873 42.7077 16.3079 42.7077 14.8857V9.55238H45.1267V14.6571C45.1267 15.4698 45.2918 16.0921 45.622 16.5238C45.9521 16.9556 46.4728 17.1714 47.1839 17.1714C47.8569 17.1714 48.4093 16.9302 48.841 16.4476C49.2855 15.9651 49.5077 15.2921 49.5077 14.4286V9.55238H51.9458V19H49.7934L49.6029 17.4C49.3109 17.9587 48.8855 18.4032 48.3267 18.7333C47.7807 19.0635 47.1394 19.2286 46.4029 19.2286ZM59.0296 19.2286C58.1407 19.2286 57.347 19.0127 56.6486 18.581C55.9502 18.1492 55.3978 17.5587 54.9915 16.8095C54.5851 16.0603 54.3819 15.2095 54.3819 14.2571C54.3819 13.3048 54.5851 12.4603 54.9915 11.7238C55.3978 10.9746 55.9502 10.3905 56.6486 9.97143C57.347 9.53968 58.1407 9.32381 59.0296 9.32381C59.7407 9.32381 60.3629 9.45714 60.8962 9.72381C61.4296 9.99048 61.8613 10.3651 62.1915 10.8476V5.28571H64.6296V19H62.4581L62.1915 17.6476C61.8867 18.0667 61.4804 18.4349 60.9724 18.7524C60.4772 19.0698 59.8296 19.2286 59.0296 19.2286ZM59.5438 17.0952C60.3311 17.0952 60.9724 16.8349 61.4677 16.3143C61.9756 15.781 62.2296 15.1016 62.2296 14.2762C62.2296 13.4508 61.9756 12.7778 61.4677 12.2571C60.9724 11.7238 60.3311 11.4571 59.5438 11.4571C58.7692 11.4571 58.128 11.7175 57.62 12.2381C57.1121 12.7587 56.8581 13.4317 56.8581 14.2571C56.8581 15.0825 57.1121 15.7619 57.62 16.2952C58.128 16.8286 58.7692 17.0952 59.5438 17.0952ZM68.6647 8.08571C68.2202 8.08571 67.852 7.95238 67.5599 7.68571C67.2806 7.41905 67.1409 7.08254 67.1409 6.67619C67.1409 6.26984 67.2806 5.93968 67.5599 5.68571C67.852 5.41905 68.2202 5.28571 68.6647 5.28571C69.1091 5.28571 69.471 5.41905 69.7504 5.68571C70.0425 5.93968 70.1885 6.26984 70.1885 6.67619C70.1885 7.08254 70.0425 7.41905 69.7504 7.68571C69.471 7.95238 69.1091 8.08571 68.6647 8.08571ZM67.4456 19V9.55238H69.8837V19H67.4456ZM77.1999 19.2286C76.2857 19.2286 75.4603 19.019 74.7238 18.6C73.9999 18.181 73.4222 17.6032 72.9904 16.8667C72.5714 16.1175 72.3619 15.254 72.3619 14.2762C72.3619 13.2984 72.5777 12.4413 73.0095 11.7048C73.4412 10.9556 74.019 10.3714 74.7428 9.95238C75.4793 9.53333 76.3047 9.32381 77.219 9.32381C78.1206 9.32381 78.9333 9.53333 79.6571 9.95238C80.3936 10.3714 80.9714 10.9556 81.3904 11.7048C81.8222 12.4413 82.038 13.2984 82.038 14.2762C82.038 15.254 81.8222 16.1175 81.3904 16.8667C80.9714 17.6032 80.3936 18.181 79.6571 18.6C78.9206 19.019 78.1015 19.2286 77.1999 19.2286ZM77.1999 17.1143C77.8349 17.1143 78.3873 16.8794 78.8571 16.4095C79.3269 15.927 79.5619 15.2159 79.5619 14.2762C79.5619 13.3365 79.3269 12.6317 78.8571 12.1619C78.3873 11.6794 77.8412 11.4381 77.219 11.4381C76.5714 11.4381 76.0126 11.6794 75.5428 12.1619C75.0857 12.6317 74.8571 13.3365 74.8571 14.2762C74.8571 15.2159 75.0857 15.927 75.5428 16.4095C76.0126 16.8794 76.565 17.1143 77.1999 17.1143Z" fill="black"/>
</svg>
